<svg width="239" height="74" viewBox="0 0 239 74" fill="none" xmlns="http://www.w3.org/2000/svg">
<path d="M101.593 73.9168L98.3425 64.2118H99.7731L102.759 73.1681H102.037L105.135 64.2118H106.412L109.44 73.1681H108.746L111.774 64.2118H113.093L109.843 73.9168H108.385L105.551 65.6121H105.926L103.079 73.9168H101.593Z" fill="#D6DDDC"/>
<path d="M117.195 74C116.454 74 115.797 73.8382 115.222 73.5147C114.648 73.1912 114.195 72.7476 113.861 72.1838C113.528 71.6107 113.361 70.9637 113.361 70.2428C113.361 69.5126 113.528 68.8656 113.861 68.3018C114.195 67.7379 114.648 67.2989 115.222 66.9846C115.797 66.6611 116.454 66.4994 117.195 66.4994C117.926 66.4994 118.579 66.6611 119.153 66.9846C119.737 67.2989 120.19 67.7379 120.514 68.3018C120.848 68.8563 121.014 69.5033 121.014 70.2428C121.014 70.973 120.848 71.6199 120.514 72.1838C120.19 72.7476 119.737 73.1912 119.153 73.5147C118.579 73.8382 117.926 74 117.195 74ZM117.195 72.8354C117.667 72.8354 118.088 72.7291 118.459 72.5165C118.838 72.3039 119.135 72.0035 119.348 71.6153C119.561 71.2179 119.667 70.7604 119.667 70.2428C119.667 69.7159 119.561 69.263 119.348 68.8841C119.135 68.4958 118.838 68.1955 118.459 67.9829C118.088 67.7703 117.667 67.664 117.195 67.664C116.723 67.664 116.301 67.7703 115.931 67.9829C115.56 68.1955 115.264 68.4958 115.042 68.8841C114.82 69.263 114.709 69.7159 114.709 70.2428C114.709 70.7604 114.82 71.2179 115.042 71.6153C115.264 72.0035 115.56 72.3039 115.931 72.5165C116.301 72.7291 116.723 72.8354 117.195 72.8354Z" fill="#D6DDDC"/>
<path d="M122.858 73.9168V66.5687H124.136V68.5652L124.011 68.0661C124.215 67.5577 124.558 67.1695 125.039 66.9015C125.521 66.6334 126.113 66.4994 126.817 66.4994V67.7888C126.761 67.7795 126.706 67.7749 126.65 67.7749C126.604 67.7749 126.558 67.7749 126.511 67.7749C125.798 67.7749 125.234 67.9875 124.817 68.4127C124.4 68.8378 124.192 69.4525 124.192 70.2566V73.9168H122.858Z" fill="#D6DDDC"/>
<path d="M129.544 72.1422L129.572 70.4369L133.808 66.5687H135.419L132.169 69.7575L131.447 70.3675L129.544 72.1422ZM128.46 73.9168V63.6295H129.794V73.9168H128.46ZM134.086 73.9168L131.197 70.3398L132.058 69.2723L135.725 73.9168H134.086Z" fill="#D6DDDC"/>
<path d="M139.874 74C139.133 74 138.476 73.8382 137.902 73.5147C137.328 73.1912 136.874 72.7476 136.54 72.1838C136.207 71.6107 136.04 70.9637 136.04 70.2428C136.04 69.5126 136.207 68.8656 136.54 68.3018C136.874 67.7379 137.328 67.2989 137.902 66.9846C138.476 66.6611 139.133 66.4994 139.874 66.4994C140.605 66.4994 141.258 66.6611 141.832 66.9846C142.416 67.2989 142.869 67.7379 143.194 68.3018C143.527 68.8563 143.694 69.5033 143.694 70.2428C143.694 70.973 143.527 71.6199 143.194 72.1838C142.869 72.7476 142.416 73.1912 141.832 73.5147C141.258 73.8382 140.605 74 139.874 74ZM139.874 72.8354C140.346 72.8354 140.768 72.7291 141.138 72.5165C141.518 72.3039 141.814 72.0035 142.027 71.6153C142.24 71.2179 142.346 70.7604 142.346 70.2428C142.346 69.7159 142.24 69.263 142.027 68.8841C141.814 68.4958 141.518 68.1955 141.138 67.9829C140.768 67.7703 140.346 67.664 139.874 67.664C139.402 67.664 138.98 67.7703 138.61 67.9829C138.24 68.1955 137.943 68.4958 137.721 68.8841C137.499 69.263 137.388 69.7159 137.388 70.2428C137.388 70.7604 137.499 71.2179 137.721 71.6153C137.943 72.0035 138.24 72.3039 138.61 72.5165C138.98 72.7291 139.402 72.8354 139.874 72.8354Z" fill="#D6DDDC"/>
<path d="M148.635 74C148.005 74 147.45 73.8845 146.968 73.6534C146.496 73.4223 146.126 73.0711 145.857 72.5997C145.598 72.1191 145.468 71.5183 145.468 70.7973V66.5687H146.802V70.6448C146.802 71.3658 146.973 71.9065 147.316 72.267C147.667 72.6274 148.158 72.8077 148.788 72.8077C149.251 72.8077 149.654 72.7152 149.996 72.5304C150.339 72.3363 150.603 72.059 150.788 71.6985C150.973 71.3288 151.066 70.8851 151.066 70.3675V66.5687H152.399V73.9168H151.135V71.9342L151.344 72.4611C151.103 72.9509 150.742 73.3299 150.26 73.5979C149.779 73.866 149.237 74 148.635 74Z" fill="#D6DDDC"/>
<path d="M157.466 74C156.725 74 156.151 73.8013 155.743 73.4038C155.336 73.0064 155.132 72.438 155.132 71.6985V64.9604H156.465V71.6431C156.465 72.0405 156.563 72.3455 156.757 72.5581C156.961 72.7707 157.248 72.877 157.618 72.877C158.035 72.877 158.382 72.7615 158.66 72.5304L159.077 73.487C158.873 73.6626 158.628 73.792 158.341 73.8752C158.063 73.9584 157.771 74 157.466 74ZM153.882 67.664V66.5687H158.577V67.664H153.882Z" fill="#D6DDDC"/>
<path d="M164.613 73.9168V64.2118H168.405C169.257 64.2118 169.984 64.3458 170.586 64.6138C171.188 64.8819 171.651 65.2701 171.975 65.7784C172.299 66.2868 172.461 66.8922 172.461 67.5947C172.461 68.2971 172.299 68.9025 171.975 69.4109C171.651 69.91 171.188 70.2936 170.586 70.5616C169.984 70.8297 169.257 70.9637 168.405 70.9637H165.377L166.002 70.326V73.9168H164.613ZM171.114 73.9168L168.641 70.3953H170.128L172.628 73.9168H171.114ZM166.002 70.4646L165.377 69.7852H168.364C169.253 69.7852 169.924 69.5958 170.378 69.2168C170.841 68.8286 171.072 68.2879 171.072 67.5947C171.072 66.9015 170.841 66.3654 170.378 65.9864C169.924 65.6075 169.253 65.418 168.364 65.418H165.377L166.002 64.7247V70.4646Z" fill="#D6DDDC"/>
<path d="M177.789 74C177.002 74 176.307 73.8382 175.705 73.5147C175.113 73.1912 174.65 72.7476 174.316 72.1838C173.992 71.6199 173.83 70.973 173.83 70.2428C173.83 69.5126 173.987 68.8656 174.302 68.3018C174.626 67.7379 175.066 67.2989 175.622 66.9846C176.187 66.6611 176.821 66.4994 177.525 66.4994C178.238 66.4994 178.867 66.6565 179.414 66.9708C179.96 67.285 180.386 67.7287 180.692 68.3018C181.006 68.8656 181.164 69.5264 181.164 70.2844C181.164 70.3398 181.159 70.4045 181.15 70.4785C181.15 70.5524 181.145 70.6217 181.136 70.6864H174.872V69.7298H180.442L179.9 70.0625C179.909 69.5911 179.812 69.1706 179.608 68.8009C179.404 68.4312 179.122 68.1446 178.761 67.9413C178.409 67.7287 177.997 67.6224 177.525 67.6224C177.062 67.6224 176.65 67.7287 176.288 67.9413C175.927 68.1446 175.645 68.4358 175.441 68.8147C175.238 69.1844 175.136 69.6096 175.136 70.0903V70.3121C175.136 70.802 175.247 71.241 175.469 71.6292C175.701 72.0082 176.02 72.3039 176.427 72.5165C176.835 72.7291 177.302 72.8354 177.83 72.8354C178.265 72.8354 178.659 72.7615 179.011 72.6136C179.372 72.4657 179.687 72.2439 179.955 71.9481L180.692 72.8077C180.358 73.1959 179.941 73.4916 179.441 73.695C178.951 73.8983 178.4 74 177.789 74Z" fill="#D6DDDC"/>
<path d="M185.127 74C184.515 74 183.932 73.9168 183.376 73.7504C182.83 73.5841 182.4 73.3807 182.085 73.1404L182.64 72.0867C182.955 72.2993 183.344 72.4795 183.807 72.6274C184.27 72.7753 184.742 72.8493 185.224 72.8493C185.844 72.8493 186.289 72.7615 186.557 72.5858C186.835 72.4102 186.974 72.1653 186.974 71.851C186.974 71.62 186.891 71.4397 186.724 71.3103C186.557 71.1809 186.335 71.0839 186.057 71.0192C185.789 70.9545 185.488 70.899 185.154 70.8528C184.821 70.7973 184.488 70.7326 184.154 70.6587C183.821 70.5755 183.515 70.4646 183.238 70.326C182.96 70.1781 182.738 69.9793 182.571 69.7298C182.404 69.471 182.321 69.129 182.321 68.7038C182.321 68.2602 182.446 67.872 182.696 67.5392C182.946 67.2065 183.298 66.9523 183.751 66.7767C184.214 66.5918 184.761 66.4994 185.39 66.4994C185.872 66.4994 186.358 66.5595 186.849 66.6796C187.349 66.7905 187.756 66.9523 188.071 67.1649L187.502 68.2186C187.168 67.9967 186.821 67.8442 186.46 67.761C186.099 67.6779 185.738 67.6363 185.377 67.6363C184.793 67.6363 184.358 67.7333 184.071 67.9274C183.784 68.1123 183.64 68.3526 183.64 68.6484C183.64 68.8979 183.724 69.092 183.89 69.2307C184.066 69.3601 184.289 69.4617 184.557 69.5357C184.835 69.6096 185.14 69.6743 185.474 69.7298C185.807 69.776 186.14 69.8407 186.474 69.9239C186.807 69.9978 187.108 70.1041 187.377 70.2428C187.654 70.3814 187.877 70.5755 188.043 70.8251C188.219 71.0746 188.307 71.4074 188.307 71.8233C188.307 72.267 188.178 72.6505 187.918 72.974C187.659 73.2975 187.293 73.5517 186.821 73.7366C186.349 73.9122 185.784 74 185.127 74Z" fill="#D6DDDC"/>
<path d="M192.502 74C191.761 74 191.187 73.8013 190.779 73.4038C190.372 73.0064 190.168 72.438 190.168 71.6985V64.9604H191.502V71.6431C191.502 72.0405 191.599 72.3455 191.793 72.5581C191.997 72.7707 192.284 72.877 192.654 72.877C193.071 72.877 193.418 72.7615 193.696 72.5304L194.113 73.487C193.909 73.6626 193.664 73.792 193.377 73.8752C193.099 73.9584 192.807 74 192.502 74ZM188.918 67.664V66.5687H193.613V67.664H188.918Z" fill="#D6DDDC"/>
<path d="M201.58 73.9168V65.418H198.247V64.2118H206.289V65.418H202.955V73.9168H201.58Z" fill="#D6DDDC"/>
<path d="M207.607 73.9168V66.5687H208.94V73.9168H207.607ZM208.274 65.1545C208.014 65.1545 207.797 65.0714 207.621 64.905C207.454 64.7386 207.371 64.5353 207.371 64.295C207.371 64.0454 207.454 63.8374 207.621 63.6711C207.797 63.5047 208.014 63.4215 208.274 63.4215C208.533 63.4215 208.746 63.5047 208.913 63.6711C209.089 63.8282 209.177 64.0269 209.177 64.2672C209.177 64.5168 209.093 64.7294 208.927 64.905C208.76 65.0714 208.542 65.1545 208.274 65.1545Z" fill="#D6DDDC"/>
<path d="M220.695 66.4994C221.288 66.4994 221.811 66.6149 222.265 66.846C222.719 67.0771 223.07 67.4283 223.32 67.8997C223.58 68.3711 223.709 68.9672 223.709 69.6882V73.9168H222.376V69.8407C222.376 69.129 222.209 68.5929 221.876 68.2324C221.543 67.872 221.075 67.6917 220.473 67.6917C220.029 67.6917 219.64 67.7841 219.306 67.969C218.973 68.1539 218.714 68.4265 218.528 68.787C218.353 69.1475 218.265 69.5958 218.265 70.1318V73.9168H216.931V69.8407C216.931 69.129 216.764 68.5929 216.431 68.2324C216.107 67.872 215.639 67.6917 215.028 67.6917C214.593 67.6917 214.209 67.7841 213.875 67.969C213.542 68.1539 213.283 68.4265 213.098 68.787C212.912 69.1475 212.82 69.5958 212.82 70.1318V73.9168H211.486V66.5687H212.764V68.5236L212.556 68.0245C212.787 67.5438 213.144 67.1695 213.625 66.9015C214.107 66.6334 214.667 66.4994 215.306 66.4994C216.01 66.4994 216.616 66.675 217.126 67.0262C217.635 67.3682 217.968 67.8904 218.126 68.5929L217.584 68.3711C217.806 67.8073 218.195 67.3544 218.751 67.0124C219.306 66.6704 219.954 66.4994 220.695 66.4994Z" fill="#D6DDDC"/>
<path d="M229.441 74C228.654 74 227.959 73.8382 227.357 73.5147C226.765 73.1912 226.302 72.7476 225.968 72.1838C225.644 71.6199 225.482 70.973 225.482 70.2428C225.482 69.5126 225.64 68.8656 225.954 68.3018C226.279 67.7379 226.718 67.2989 227.274 66.9846C227.839 66.6611 228.473 66.4994 229.177 66.4994C229.89 66.4994 230.52 66.6565 231.066 66.9708C231.612 67.285 232.038 67.7287 232.344 68.3018C232.658 68.8656 232.816 69.5264 232.816 70.2844C232.816 70.3398 232.811 70.4045 232.802 70.4785C232.802 70.5524 232.797 70.6217 232.788 70.6864H226.524V69.7298H232.094L231.552 70.0625C231.561 69.5911 231.464 69.1706 231.26 68.8009C231.057 68.4312 230.774 68.1446 230.413 67.9413C230.061 67.7287 229.649 67.6224 229.177 67.6224C228.714 67.6224 228.302 67.7287 227.941 67.9413C227.58 68.1446 227.297 68.4358 227.093 68.8147C226.89 69.1844 226.788 69.6096 226.788 70.0903V70.3121C226.788 70.802 226.899 71.241 227.121 71.6292C227.353 72.0082 227.672 72.3039 228.08 72.5165C228.487 72.7291 228.955 72.8354 229.482 72.8354C229.918 72.8354 230.311 72.7615 230.663 72.6136C231.024 72.4657 231.339 72.2439 231.608 71.9481L232.344 72.8077C232.01 73.1959 231.594 73.4916 231.094 73.695C230.603 73.8983 230.052 74 229.441 74Z" fill="#D6DDDC"/>
<path d="M234.667 73.9168V66.5687H235.945V68.5652L235.82 68.0661C236.024 67.5577 236.367 67.1695 236.848 66.9015C237.33 66.6334 237.922 66.4994 238.626 66.4994V67.7888C238.57 67.7795 238.515 67.7749 238.459 67.7749C238.413 67.7749 238.367 67.7749 238.32 67.7749C237.607 67.7749 237.043 67.9875 236.626 68.4127C236.209 68.8378 236.001 69.4525 236.001 70.2566V73.9168H234.667Z" fill="#D6DDDC"/>
<path d="M75.5969 56.0912C75.0678 56.0912 74.7238 55.8271 74.5651 55.299L58.215 1.74294L58.1356 1.42604C58.1356 0.897878 58.4267 0.633796 59.0087 0.633796H69.0092C69.5913 0.633796 69.9617 0.897878 70.1204 1.42604L80.6766 40.0878C80.7295 40.2462 80.8088 40.3255 80.9147 40.3255C81.0205 40.3255 81.0999 40.2462 81.1528 40.0878L91.5502 1.42604C91.7089 0.897878 92.0793 0.633796 92.6613 0.633796H102.424C102.741 0.633796 102.979 0.739429 103.138 0.950696C103.297 1.16196 103.323 1.42605 103.217 1.74294L86.6293 55.299C86.4705 55.8271 86.1266 56.0912 85.5975 56.0912H75.5969Z" fill="#D6DDDC"/>
<path d="M111.16 56.0912C110.895 56.0912 110.657 56.012 110.446 55.8535C110.287 55.6423 110.208 55.4046 110.208 55.1405V1.5845C110.208 1.32041 110.287 1.10915 110.446 0.950696C110.657 0.739429 110.895 0.633796 111.16 0.633796H120.446C120.711 0.633796 120.922 0.739429 121.081 0.950696C121.293 1.10915 121.399 1.32041 121.399 1.5845V55.1405C121.399 55.4046 121.293 55.6423 121.081 55.8535C120.922 56.012 120.711 56.0912 120.446 56.0912H111.16Z" fill="#D6DDDC"/>
<path d="M150.582 56.725C146.508 56.725 142.91 55.9064 139.788 54.269C136.666 52.6317 134.232 50.3606 132.486 47.4557C130.793 44.498 129.946 41.0913 129.946 37.2357V19.4893C129.946 15.6337 130.793 12.227 132.486 9.26931C134.232 6.31158 136.666 4.04047 139.788 2.45597C142.91 0.818656 146.508 0 150.582 0C154.604 0 158.149 0.792248 161.218 2.37674C164.34 3.96124 166.747 6.12672 168.441 8.87319C170.187 11.5668 171.06 14.5774 171.06 17.9048V18.4594C171.06 18.7235 170.954 18.9612 170.742 19.1724C170.584 19.3309 170.372 19.4101 170.107 19.4101H160.821C160.557 19.4101 160.318 19.3309 160.107 19.1724C159.948 18.9612 159.869 18.7235 159.869 18.4594V18.2217C159.869 15.7922 159.022 13.7587 157.329 12.1214C155.636 10.4313 153.387 9.58621 150.582 9.58621C147.725 9.58621 145.423 10.4841 143.677 12.2799C141.984 14.0228 141.137 16.3203 141.137 19.1724V37.5526C141.137 40.4047 142.063 42.7286 143.915 44.5244C145.767 46.2673 148.122 47.1388 150.979 47.1388C153.731 47.1388 155.927 46.4258 157.567 44.9997C159.207 43.5209 160.027 41.4874 160.027 38.8994V35.3343C160.027 35.0702 159.895 34.9382 159.631 34.9382H150.741C150.477 34.9382 150.238 34.8589 150.027 34.7005C149.868 34.4892 149.789 34.2516 149.789 33.9875V26.6988C149.789 26.4347 149.868 26.2234 150.027 26.065C150.238 25.8537 150.477 25.7481 150.741 25.7481H170.107C170.372 25.7481 170.584 25.8537 170.742 26.065C170.954 26.2234 171.06 26.4347 171.06 26.6988V37.1565C171.06 41.1705 170.213 44.6564 168.52 47.6142C166.827 50.5719 164.419 52.843 161.297 54.4275C158.228 55.9592 154.657 56.725 150.582 56.725Z" fill="#D6DDDC"/>
<path d="M180.608 56.0912C180.344 56.0912 180.106 56.012 179.894 55.8535C179.735 55.6423 179.656 55.4046 179.656 55.1405V1.5845C179.656 1.32041 179.735 1.10915 179.894 0.950696C180.106 0.739429 180.344 0.633796 180.608 0.633796H189.894C190.159 0.633796 190.371 0.739429 190.529 0.950696C190.741 1.10915 190.847 1.32041 190.847 1.5845V55.1405C190.847 55.4046 190.741 55.6423 190.529 55.8535C190.371 56.012 190.159 56.0912 189.894 56.0912H180.608Z" fill="#D6DDDC"/>
<path d="M201.458 56.0912C201.194 56.0912 200.956 56.012 200.744 55.8535C200.585 55.6423 200.506 55.4046 200.506 55.1405V1.5845C200.506 1.32041 200.585 1.10915 200.744 0.950696C200.956 0.739429 201.194 0.633796 201.458 0.633796H210.744C211.009 0.633796 211.221 0.739429 211.379 0.950696C211.591 1.10915 211.697 1.32041 211.697 1.5845V46.1089C211.697 46.373 211.829 46.505 212.094 46.505H238.048C238.312 46.505 238.524 46.6106 238.683 46.8219C238.894 46.9804 239 47.1916 239 47.4557V55.1405C239 55.4046 238.894 55.6423 238.683 55.8535C238.524 56.012 238.312 56.0912 238.048 56.0912H201.458Z" fill="#D6DDDC"/>
<path d="M16.245 42.4785C17.0835 43.1514 17.2128 44.3706 16.5338 45.2015C15.8549 46.0325 14.6248 46.1606 13.7863 45.4877L16.245 42.4785ZM41.7723 11.2373C42.6107 11.9102 42.74 13.1293 42.061 13.9602C41.3821 14.7911 40.1519 14.9193 39.3134 14.2464L41.7723 11.2373ZM9.88894 45.999L14.0921 49.372L11.6334 52.3811L7.43021 49.008L9.88894 45.999ZM45.6695 10.7261L41.4666 7.35291L43.9252 4.34384L48.1284 7.71701L45.6695 10.7261ZM46.1803 15.5419C47.0173 14.5175 47.5181 13.898 47.8206 13.4061C47.9597 13.1797 48.013 13.0473 48.0338 12.9788C48.0497 12.9263 48.0454 12.9131 48.0454 12.9131L51.9309 12.5084C52.0521 13.6506 51.6576 14.6062 51.1573 15.4201C50.6867 16.186 49.9842 17.0393 49.2166 17.9786L46.1803 15.5419ZM48.1284 7.71701C49.0762 8.47764 49.9424 9.16747 50.5633 9.81967C51.2235 10.5127 51.8098 11.3661 51.9309 12.5084L48.0454 12.9131C48.0454 12.9131 48.0468 12.8993 48.0202 12.8512C47.9855 12.7885 47.9057 12.67 47.7221 12.4772C47.323 12.0584 46.7032 11.5556 45.6695 10.7261L48.1284 7.71701ZM14.0921 49.372C15.1257 50.2015 15.7508 50.6978 16.2471 50.9976C16.4755 51.1355 16.6092 51.1883 16.6783 51.2089C16.7312 51.2246 16.7446 51.2204 16.7446 51.2204L17.153 55.0711C16.0004 55.1912 15.0362 54.8003 14.2149 54.3044C13.4421 53.8381 12.5811 53.1418 11.6334 52.3811L14.0921 49.372ZM21.9876 51.3026C21.2201 52.2419 20.5241 53.1004 19.866 53.7158C19.1667 54.37 18.3055 54.9511 17.153 55.0711L16.7446 51.2204C16.7446 51.2204 16.7585 51.2218 16.807 51.1954C16.8703 51.1611 16.9899 51.0819 17.1844 50.8999C17.607 50.5045 18.1143 49.8902 18.9513 48.8658L21.9876 51.3026ZM9.37818 41.183C8.5412 42.2075 8.04037 42.827 7.73806 43.3189C7.59895 43.5452 7.54551 43.6777 7.52487 43.7463C7.50901 43.7986 7.5132 43.8119 7.5132 43.8119L3.62767 44.2166C3.50654 43.0745 3.90108 42.1187 4.40126 41.3048C4.87195 40.5389 5.57447 39.6858 6.34194 38.7465L9.37818 41.183ZM7.43021 49.008C6.48245 48.2473 5.6163 47.5576 4.99521 46.9054C4.33522 46.2123 3.7488 45.3588 3.62767 44.2166L7.5132 43.8119C7.5132 43.8119 7.5119 43.8258 7.53837 43.8736C7.57295 43.9365 7.65302 44.0551 7.83656 44.2477C8.23547 44.6666 8.85533 45.1695 9.88894 45.999L7.43021 49.008ZM33.571 5.42237C34.3386 4.48309 35.0345 3.6247 35.6926 3.00917C36.3919 2.35509 37.2532 1.77391 38.4056 1.65387L38.814 5.50462C38.814 5.50462 38.8 5.50333 38.7517 5.52956C38.6883 5.56384 38.5687 5.64319 38.3742 5.82509C37.9516 6.22042 37.4442 6.83473 36.6071 7.85909L33.571 5.42237ZM41.4666 7.35291C40.433 6.52341 39.8078 6.02706 39.3114 5.72747C39.0831 5.5896 38.9494 5.53664 38.8802 5.51618C38.8275 5.50047 38.814 5.50462 38.814 5.50462L38.4056 1.65387C39.5581 1.53383 40.5225 1.92483 41.3437 2.42053C42.1165 2.88701 42.9774 3.58325 43.9252 4.34384L41.4666 7.35291ZM23.6005 48.3815L25.7021 50.0683L23.2434 53.0772L21.1418 51.3907L23.6005 48.3815ZM32.4632 49.364C33.281 48.3631 33.8106 47.7118 34.169 47.1818C34.5119 46.6742 34.5854 46.4356 34.6077 46.2957L38.4663 46.9013C38.3187 47.8254 37.9093 48.6054 37.4146 49.337C36.9352 50.0464 36.2719 50.855 35.4993 51.8006L32.4632 49.364ZM34.2111 39.6545C35.1652 40.4202 35.9837 41.0745 36.6015 41.6696C37.2388 42.2833 37.8029 42.9619 38.1412 43.8354L34.4939 45.2229C34.4427 45.0906 34.3208 44.8723 33.8789 44.4465C33.4172 44.0019 32.7625 43.4742 31.7526 42.6635L34.2111 39.6545ZM34.6077 46.2957C34.6653 45.9343 34.626 45.5644 34.4939 45.2229L38.1412 43.8354C38.5194 44.8113 38.6315 45.8688 38.4663 46.9013L34.6077 46.2957ZM35.4993 51.8006C34.7267 52.7464 34.0665 53.5572 33.466 54.1698C32.8468 54.8011 32.1621 55.3604 31.2807 55.6957L29.8807 52.0808C30.0141 52.0301 30.2344 51.9096 30.664 51.4713C31.1126 51.014 31.6451 50.3649 32.4632 49.364L35.4993 51.8006ZM25.7021 50.0683C26.712 50.8788 27.3693 51.4039 27.904 51.7588C28.4162 52.0989 28.657 52.1715 28.7982 52.1936L28.1868 56.0179C27.2546 55.8716 26.4675 55.4656 25.7294 54.9756C25.0134 54.5002 24.1975 53.8431 23.2434 53.0772L25.7021 50.0683ZM31.2807 55.6957C30.2959 56.0703 29.2289 56.1814 28.1868 56.0179L28.7982 52.1936C29.1628 52.2509 29.536 52.212 29.8807 52.0808L31.2807 55.6957ZM6.07737 28.1885C5.2595 29.1896 4.7297 29.8407 4.37155 30.3707C4.02837 30.8783 3.95518 31.1169 3.93283 31.2568L0.0740003 30.6512C0.221658 29.7271 0.631115 28.947 1.12575 28.2155C1.60534 27.506 2.26848 26.6975 3.04113 25.7519L6.07737 28.1885ZM4.32929 37.8982C3.37513 37.1322 2.55685 36.478 1.9389 35.8828C1.3016 35.2692 0.73745 34.5906 0.399184 33.7174L4.04661 32.3296C4.09782 32.4618 4.21947 32.6802 4.66164 33.106C5.12314 33.5505 5.77798 34.0785 6.78799 34.889L4.32929 37.8982ZM3.93283 31.2568C3.87509 31.6181 3.91432 31.9881 4.04661 32.3296L0.399184 33.7174C0.0211032 32.7411 -0.0910395 31.6837 0.0740003 30.6512L3.93283 31.2568ZM3.04113 25.7519C3.81377 24.8063 4.47399 23.9953 5.07449 23.3829C5.69378 22.7513 6.37843 22.1922 7.2597 21.8569L8.65981 25.4716C8.52639 25.5224 8.30609 25.6432 7.87641 26.0811C7.42799 26.5387 6.89527 27.1876 6.07737 28.1885L3.04113 25.7519ZM12.8384 27.4842C11.8283 26.6737 11.1712 26.1488 10.6365 25.7936C10.1244 25.4538 9.88353 25.381 9.74238 25.3589L10.3536 21.5347C11.2859 21.681 12.0729 22.0868 12.8112 22.577C13.527 23.0523 14.3429 23.7095 15.2971 24.4753L12.8384 27.4842ZM7.2597 21.8569C8.24459 21.4823 9.31161 21.3711 10.3536 21.5347L9.74238 25.3589C9.37782 25.3018 9.00444 25.3407 8.65981 25.4716L7.2597 21.8569ZM49.1277 17.1404L51.2292 18.8269L48.7706 21.836L46.6689 20.1494L49.1277 17.1404ZM52.5173 30.9731C51.7447 31.9187 51.0846 32.7298 50.484 33.3421C49.8649 33.9737 49.1801 34.5327 48.2988 34.868L46.8987 31.2534C47.0322 31.2027 47.2524 31.0819 47.6821 30.6439C48.1307 30.1863 48.6634 29.5375 49.4813 28.5366L52.5173 30.9731ZM42.7202 29.2408C43.7304 30.0513 44.3873 30.5762 44.9221 30.9314C45.4343 31.2712 45.6751 31.344 45.8162 31.3662L45.2051 35.1902C44.2727 35.0439 43.4856 34.6382 42.7474 34.1479C42.0316 33.6728 41.2157 33.0154 40.2616 32.2497L42.7202 29.2408ZM48.2988 34.868C47.314 35.2428 46.247 35.354 45.2051 35.1902L45.8162 31.3662C46.1808 31.4232 46.5541 31.3843 46.8987 31.2534L48.2988 34.868ZM49.4813 28.5366C50.2991 27.5354 50.829 26.8843 51.1871 26.3544C51.5303 25.8467 51.6034 25.6081 51.6258 25.4682L55.4847 26.0739C55.337 26.9979 54.9274 27.778 54.433 28.5095C53.9532 29.219 53.2902 30.0275 52.5173 30.9731L49.4813 28.5366ZM51.2292 18.8269C52.1836 19.5926 53.0017 20.247 53.6198 20.8422C54.2569 21.4558 54.8212 22.1344 55.1595 23.0076L51.512 24.3954C51.4608 24.2632 51.3392 24.0448 50.897 23.619C50.4355 23.1745 49.7806 22.6465 48.7706 21.836L51.2292 18.8269ZM51.6258 25.4682C51.6836 25.1069 51.6444 24.7369 51.512 24.3954L55.1595 23.0076C55.5375 23.9839 55.6496 25.0413 55.4847 26.0739L51.6258 25.4682ZM20.0593 4.92431C20.8319 3.97872 21.4921 3.16777 22.0926 2.55535C22.7118 1.92376 23.3966 1.36466 24.2779 1.02939L25.6779 4.64419C25.5445 4.69494 25.3242 4.81551 24.8946 5.25372C24.446 5.71108 23.9135 6.36004 23.0954 7.36103L20.0593 4.92431ZM29.8565 6.65678C28.8466 5.8462 28.1893 5.32117 27.6546 4.96623C27.1424 4.62612 26.9016 4.55359 26.7605 4.53143L27.3718 0.70712C28.304 0.853483 29.0911 1.25928 29.8292 1.74948C30.5451 2.22478 31.361 2.88198 32.3153 3.64769L29.8565 6.65678ZM24.2779 1.02939C25.2627 0.654724 26.3297 0.543585 27.3718 0.70712L26.7605 4.53143C26.3959 4.47421 26.0226 4.51309 25.6779 4.64419L24.2779 1.02939ZM23.0954 7.36103C22.2776 8.362 21.748 9.01331 21.3896 9.54314C21.0467 10.0507 20.9732 10.2894 20.9509 10.4293L17.0921 9.82357C17.2398 8.89958 17.6493 8.11964 18.1439 7.38799C18.6235 6.67853 19.2866 5.86992 20.0593 4.92431L23.0954 7.36103ZM21.3475 17.0705C20.3933 16.3048 19.575 15.6505 18.9571 15.0554C18.3197 14.4416 17.7556 13.7631 17.4173 12.8897L21.0647 11.5022C21.1159 11.6344 21.2378 11.8527 21.6797 12.2786C22.1414 12.723 22.7961 13.2509 23.806 14.0615L21.3475 17.0705ZM20.9509 10.4293C20.8933 10.7906 20.9326 11.1606 21.0647 11.5022L17.4173 12.8897C17.0393 11.9137 16.9271 10.8562 17.0921 9.82357L20.9509 10.4293ZM6.78799 34.889L16.245 42.4785L13.7863 45.4877L4.32929 37.8982L6.78799 34.889ZM32.3153 3.64769L41.7723 11.2373L39.3134 14.2464L29.8565 6.65678L32.3153 3.64769ZM31.7526 42.6635L28.6 40.1336L31.0588 37.1247L34.2111 39.6545L31.7526 42.6635ZM28.3112 37.4109L36.8205 26.9969L39.8566 29.4337L31.3476 39.8474L28.3112 37.4109ZM40.2616 32.2497L37.1093 29.7199L39.5678 26.7107L42.7202 29.2408L40.2616 32.2497ZM28.6 40.1336L15.9907 30.0143L18.4494 27.0051L31.0588 37.1247L28.6 40.1336ZM15.9907 30.0143L12.8384 27.4842L15.2971 24.4753L18.4494 27.0051L15.9907 30.0143ZM27.2474 19.3142L18.7382 29.7281L15.7019 27.2913L24.211 16.8775L27.2474 19.3142ZM37.1093 29.7199L24.4998 19.6004L26.9586 16.5913L39.5678 26.7107L37.1093 29.7199ZM24.4998 19.6004L21.3475 17.0705L23.806 14.0615L26.9586 16.5913L24.4998 19.6004ZM46.6689 20.1494C45.2502 19.0108 45.0314 16.948 46.1803 15.5419L49.2166 17.9786C49.4257 17.7228 49.3859 17.3475 49.1277 17.1404L46.6689 20.1494ZM21.1418 51.3907C21.3999 51.5979 21.7786 51.5585 21.9876 51.3026L18.9513 48.8658C20.1002 47.4598 22.1818 47.243 23.6005 48.3815L21.1418 51.3907Z" fill="#D6DDDC"/>
</svg>
