<svg width="181" height="57" viewBox="0 0 181 57" fill="none" xmlns="http://www.w3.org/2000/svg">
<path d="M17.4613 56.0912C16.9322 56.0912 16.5882 55.8271 16.4295 55.299L0.0793686 1.74294L0 1.42604C0 0.897878 0.291019 0.633796 0.873062 0.633796H10.8736C11.4557 0.633796 11.826 0.897878 11.9848 1.42604L22.5409 40.0878C22.5938 40.2462 22.6732 40.3255 22.779 40.3255C22.8849 40.3255 22.9642 40.2462 23.0171 40.0878L33.4145 1.42604C33.5733 0.897878 33.9437 0.633796 34.5257 0.633796H44.2881C44.6056 0.633796 44.8437 0.739429 45.0025 0.950696C45.1612 1.16196 45.1877 1.42605 45.0818 1.74294L28.4936 55.299C28.3349 55.8271 27.991 56.0912 27.4618 56.0912H17.4613Z" fill="#D6DDDC"/>
<path d="M53.0244 56.0912C52.7598 56.0912 52.5217 56.012 52.31 55.8535C52.1513 55.6423 52.0719 55.4046 52.0719 55.1405V1.5845C52.0719 1.32041 52.1513 1.10915 52.31 0.950696C52.5217 0.739429 52.7598 0.633796 53.0244 0.633796H62.3106C62.5752 0.633796 62.7868 0.739429 62.9455 0.950696C63.1572 1.10915 63.263 1.32041 63.263 1.5845V55.1405C63.263 55.4046 63.1572 55.6423 62.9455 55.8535C62.7868 56.012 62.5752 56.0912 62.3106 56.0912H53.0244Z" fill="#D6DDDC"/>
<path d="M92.4468 56.725C88.3725 56.725 84.7744 55.9064 81.6526 54.269C78.5307 52.6317 76.0967 50.3606 74.3506 47.4557C72.6574 44.498 71.8107 41.0913 71.8107 37.2357V19.4893C71.8107 15.6337 72.6574 12.227 74.3506 9.26931C76.0967 6.31158 78.5307 4.04047 81.6526 2.45597C84.7744 0.818656 88.3725 0 92.4468 0C96.4682 0 100.013 0.792248 103.082 2.37674C106.204 3.96124 108.612 6.12672 110.305 8.87319C112.051 11.5668 112.924 14.5774 112.924 17.9048V18.4594C112.924 18.7235 112.818 18.9612 112.607 19.1724C112.448 19.3309 112.236 19.4101 111.972 19.4101H102.685C102.421 19.4101 102.183 19.3309 101.971 19.1724C101.812 18.9612 101.733 18.7235 101.733 18.4594V18.2217C101.733 15.7922 100.886 13.7587 99.1932 12.1214C97.5 10.4313 95.2512 9.58621 92.4468 9.58621C89.5895 9.58621 87.2878 10.4841 85.5417 12.2799C83.8484 14.0228 83.0018 16.3203 83.0018 19.1724V37.5526C83.0018 40.4047 83.9278 42.7286 85.7798 44.5244C87.6317 46.2673 89.9863 47.1388 92.8436 47.1388C95.5951 47.1388 97.791 46.4258 99.4313 44.9997C101.072 43.5209 101.892 41.4874 101.892 38.8994V35.3343C101.892 35.0702 101.759 34.9382 101.495 34.9382H92.6055C92.341 34.9382 92.1029 34.859 91.8912 34.7005C91.7325 34.4892 91.6531 34.2516 91.6531 33.9875V26.6988C91.6531 26.4347 91.7325 26.2234 91.8912 26.065C92.1029 25.8537 92.341 25.7481 92.6055 25.7481H111.972C112.236 25.7481 112.448 25.8537 112.607 26.065C112.818 26.2234 112.924 26.4347 112.924 26.6988V37.1565C112.924 41.1705 112.078 44.6564 110.384 47.6142C108.691 50.5719 106.284 52.843 103.162 54.4275C100.093 55.9592 96.5211 56.725 92.4468 56.725Z" fill="#D6DDDC"/>
<path d="M122.473 56.0912C122.208 56.0912 121.97 56.012 121.758 55.8535C121.6 55.6423 121.52 55.4046 121.52 55.1405V1.5845C121.52 1.32041 121.6 1.10915 121.758 0.950696C121.97 0.739429 122.208 0.633796 122.473 0.633796H131.759C132.023 0.633796 132.235 0.739429 132.394 0.950696C132.605 1.10915 132.711 1.32041 132.711 1.5845V55.1405C132.711 55.4046 132.605 55.6423 132.394 55.8535C132.235 56.012 132.023 56.0912 131.759 56.0912H122.473Z" fill="#D6DDDC"/>
<path d="M143.323 56.0912C143.058 56.0912 142.82 56.012 142.608 55.8535C142.45 55.6423 142.37 55.4046 142.37 55.1405V1.5845C142.37 1.32041 142.45 1.10915 142.608 0.950696C142.82 0.739429 143.058 0.633796 143.323 0.633796H152.609C152.873 0.633796 153.085 0.739429 153.244 0.950696C153.455 1.10915 153.561 1.32041 153.561 1.5845V46.1089C153.561 46.373 153.694 46.505 153.958 46.505H179.912C180.176 46.505 180.388 46.6106 180.547 46.8219C180.759 46.9804 180.864 47.1916 180.864 47.4557V55.1405C180.864 55.4046 180.759 55.6423 180.547 55.8535C180.388 56.012 180.176 56.0912 179.912 56.0912H143.323Z" fill="#D6DDDC"/>
</svg>
