<svg width="239" height="57" viewBox="0 0 239 57" fill="none" xmlns="http://www.w3.org/2000/svg">
<path d="M75.5969 56.0912C75.0678 56.0912 74.7238 55.8271 74.5651 55.299L58.215 1.74294L58.1356 1.42604C58.1356 0.897878 58.4267 0.633796 59.0087 0.633796H69.0092C69.5913 0.633796 69.9617 0.897878 70.1204 1.42604L80.6766 40.0878C80.7295 40.2462 80.8088 40.3255 80.9147 40.3255C81.0205 40.3255 81.0999 40.2462 81.1528 40.0878L91.5502 1.42604C91.7089 0.897878 92.0793 0.633796 92.6613 0.633796H102.424C102.741 0.633796 102.979 0.739429 103.138 0.950696C103.297 1.16196 103.323 1.42605 103.217 1.74294L86.6293 55.299C86.4705 55.8271 86.1266 56.0912 85.5975 56.0912H75.5969Z" fill="#D6DDDC"/>
<path d="M111.16 56.0912C110.895 56.0912 110.657 56.012 110.446 55.8535C110.287 55.6423 110.208 55.4046 110.208 55.1405V1.5845C110.208 1.32041 110.287 1.10915 110.446 0.950696C110.657 0.739429 110.895 0.633796 111.16 0.633796H120.446C120.711 0.633796 120.922 0.739429 121.081 0.950696C121.293 1.10915 121.399 1.32041 121.399 1.5845V55.1405C121.399 55.4046 121.293 55.6423 121.081 55.8535C120.922 56.012 120.711 56.0912 120.446 56.0912H111.16Z" fill="#D6DDDC"/>
<path d="M150.582 56.725C146.508 56.725 142.91 55.9064 139.788 54.269C136.666 52.6317 134.232 50.3606 132.486 47.4557C130.793 44.498 129.946 41.0913 129.946 37.2357V19.4893C129.946 15.6337 130.793 12.227 132.486 9.26931C134.232 6.31158 136.666 4.04047 139.788 2.45597C142.91 0.818656 146.508 0 150.582 0C154.604 0 158.149 0.792248 161.218 2.37674C164.34 3.96124 166.747 6.12672 168.441 8.87319C170.187 11.5668 171.06 14.5774 171.06 17.9048V18.4594C171.06 18.7235 170.954 18.9612 170.742 19.1724C170.584 19.3309 170.372 19.4101 170.107 19.4101H160.821C160.557 19.4101 160.318 19.3309 160.107 19.1724C159.948 18.9612 159.869 18.7235 159.869 18.4594V18.2217C159.869 15.7922 159.022 13.7587 157.329 12.1214C155.636 10.4313 153.387 9.58621 150.582 9.58621C147.725 9.58621 145.423 10.4841 143.677 12.2799C141.984 14.0228 141.137 16.3203 141.137 19.1724V37.5526C141.137 40.4047 142.063 42.7286 143.915 44.5244C145.767 46.2673 148.122 47.1388 150.979 47.1388C153.731 47.1388 155.927 46.4258 157.567 44.9997C159.207 43.5209 160.027 41.4874 160.027 38.8994V35.3343C160.027 35.0702 159.895 34.9382 159.631 34.9382H150.741C150.477 34.9382 150.238 34.859 150.027 34.7005C149.868 34.4892 149.789 34.2516 149.789 33.9875V26.6988C149.789 26.4347 149.868 26.2234 150.027 26.065C150.238 25.8537 150.477 25.7481 150.741 25.7481H170.107C170.372 25.7481 170.584 25.8537 170.742 26.065C170.954 26.2234 171.06 26.4347 171.06 26.6988V37.1565C171.06 41.1705 170.213 44.6564 168.52 47.6142C166.827 50.5719 164.419 52.843 161.297 54.4275C158.228 55.9592 154.657 56.725 150.582 56.725Z" fill="#D6DDDC"/>
<path d="M180.608 56.0912C180.344 56.0912 180.106 56.012 179.894 55.8535C179.735 55.6423 179.656 55.4046 179.656 55.1405V1.5845C179.656 1.32041 179.735 1.10915 179.894 0.950696C180.106 0.739429 180.344 0.633796 180.608 0.633796H189.894C190.159 0.633796 190.371 0.739429 190.529 0.950696C190.741 1.10915 190.847 1.32041 190.847 1.5845V55.1405C190.847 55.4046 190.741 55.6423 190.529 55.8535C190.371 56.012 190.159 56.0912 189.894 56.0912H180.608Z" fill="#D6DDDC"/>
<path d="M201.458 56.0912C201.194 56.0912 200.956 56.012 200.744 55.8535C200.585 55.6423 200.506 55.4046 200.506 55.1405V1.5845C200.506 1.32041 200.585 1.10915 200.744 0.950696C200.956 0.739429 201.194 0.633796 201.458 0.633796H210.744C211.009 0.633796 211.221 0.739429 211.379 0.950696C211.591 1.10915 211.697 1.32041 211.697 1.5845V46.1089C211.697 46.373 211.829 46.505 212.094 46.505H238.048C238.312 46.505 238.524 46.6106 238.683 46.8219C238.894 46.9804 239 47.1916 239 47.4557V55.1405C239 55.4046 238.894 55.6423 238.683 55.8535C238.524 56.012 238.312 56.0912 238.048 56.0912H201.458Z" fill="#D6DDDC"/>
<path d="M16.245 42.4785C17.0835 43.1514 17.2128 44.3705 16.5338 45.2015C15.8549 46.0325 14.6248 46.1606 13.7863 45.4877L16.245 42.4785ZM41.7723 11.2373C42.6107 11.9102 42.74 13.1293 42.061 13.9602C41.3821 14.7911 40.1519 14.9193 39.3134 14.2464L41.7723 11.2373ZM9.88894 45.999L14.0921 49.372L11.6334 52.3811L7.43021 49.008L9.88894 45.999ZM45.6695 10.7261L41.4666 7.35291L43.9252 4.34384L48.1284 7.71701L45.6695 10.7261ZM46.1803 15.5419C47.0173 14.5175 47.5181 13.898 47.8206 13.4061C47.9597 13.1797 48.013 13.0473 48.0338 12.9788C48.0497 12.9263 48.0454 12.9131 48.0454 12.9131L51.9309 12.5084C52.0521 13.6506 51.6576 14.6062 51.1573 15.4201C50.6867 16.186 49.9842 17.0393 49.2166 17.9786L46.1803 15.5419ZM48.1284 7.71701C49.0762 8.47764 49.9424 9.16747 50.5633 9.81967C51.2235 10.5127 51.8098 11.3661 51.9309 12.5084L48.0454 12.9131C48.0454 12.9131 48.0468 12.8993 48.0202 12.8512C47.9855 12.7885 47.9057 12.67 47.7221 12.4772C47.323 12.0584 46.7032 11.5556 45.6695 10.7261L48.1284 7.71701ZM14.0921 49.372C15.1257 50.2015 15.7508 50.6978 16.2471 50.9976C16.4755 51.1355 16.6092 51.1883 16.6783 51.2089C16.7312 51.2246 16.7446 51.2204 16.7446 51.2204L17.153 55.0711C16.0004 55.1912 15.0362 54.8003 14.2149 54.3044C13.4421 53.8381 12.5811 53.1418 11.6334 52.3811L14.0921 49.372ZM21.9876 51.3026C21.2201 52.2419 20.5241 53.1004 19.866 53.7158C19.1667 54.37 18.3055 54.9511 17.153 55.0711L16.7446 51.2204C16.7446 51.2204 16.7585 51.2218 16.807 51.1954C16.8703 51.1611 16.9899 51.0819 17.1844 50.8999C17.607 50.5045 18.1143 49.8902 18.9513 48.8658L21.9876 51.3026ZM9.37818 41.183C8.5412 42.2075 8.04037 42.827 7.73806 43.3189C7.59895 43.5452 7.54551 43.6777 7.52487 43.7463C7.50901 43.7986 7.5132 43.8119 7.5132 43.8119L3.62767 44.2166C3.50654 43.0745 3.90108 42.1187 4.40126 41.3048C4.87195 40.5389 5.57447 39.6858 6.34194 38.7465L9.37818 41.183ZM7.43021 49.008C6.48245 48.2473 5.6163 47.5576 4.99521 46.9054C4.33522 46.2123 3.7488 45.3588 3.62767 44.2166L7.5132 43.8119C7.5132 43.8119 7.5119 43.8258 7.53837 43.8736C7.57295 43.9365 7.65302 44.0551 7.83656 44.2477C8.23547 44.6666 8.85533 45.1695 9.88894 45.999L7.43021 49.008ZM33.571 5.42237C34.3386 4.48309 35.0345 3.6247 35.6926 3.00917C36.3919 2.35509 37.2532 1.77391 38.4056 1.65387L38.814 5.50462C38.814 5.50462 38.8 5.50333 38.7517 5.52956C38.6883 5.56384 38.5687 5.64319 38.3742 5.82509C37.9516 6.22042 37.4442 6.83473 36.6071 7.85909L33.571 5.42237ZM41.4666 7.35291C40.433 6.52341 39.8078 6.02706 39.3114 5.72747C39.0831 5.5896 38.9494 5.53664 38.8802 5.51618C38.8275 5.50047 38.814 5.50462 38.814 5.50462L38.4056 1.65387C39.5581 1.53383 40.5225 1.92483 41.3437 2.42053C42.1165 2.88701 42.9774 3.58325 43.9252 4.34384L41.4666 7.35291ZM23.6005 48.3815L25.7021 50.0683L23.2434 53.0772L21.1418 51.3907L23.6005 48.3815ZM32.4632 49.364C33.281 48.3631 33.8106 47.7118 34.169 47.1818C34.5119 46.6742 34.5854 46.4356 34.6077 46.2957L38.4663 46.9013C38.3187 47.8254 37.9093 48.6054 37.4146 49.337C36.9352 50.0464 36.2719 50.855 35.4993 51.8006L32.4632 49.364ZM34.2111 39.6545C35.1652 40.4202 35.9837 41.0745 36.6015 41.6696C37.2388 42.2833 37.8029 42.9619 38.1412 43.8354L34.4939 45.2229C34.4427 45.0906 34.3209 44.8723 33.8789 44.4465C33.4172 44.002 32.7625 43.4742 31.7526 42.6635L34.2111 39.6545ZM34.6077 46.2957C34.6653 45.9343 34.626 45.5644 34.4939 45.2229L38.1412 43.8354C38.5194 44.8113 38.6315 45.8688 38.4663 46.9013L34.6077 46.2957ZM35.4993 51.8006C34.7267 52.7464 34.0665 53.5572 33.466 54.1698C32.8468 54.8011 32.1621 55.3604 31.2807 55.6957L29.8807 52.0808C30.0141 52.0301 30.2344 51.9096 30.664 51.4713C31.1126 51.014 31.6451 50.3649 32.4632 49.364L35.4993 51.8006ZM25.7021 50.0683C26.712 50.8788 27.3693 51.4039 27.904 51.7588C28.4162 52.0989 28.657 52.1715 28.7982 52.1936L28.1868 56.0179C27.2546 55.8716 26.4675 55.4656 25.7294 54.9756C25.0134 54.5002 24.1975 53.8431 23.2434 53.0772L25.7021 50.0683ZM31.2807 55.6957C30.2959 56.0703 29.2289 56.1814 28.1868 56.0179L28.7982 52.1936C29.1628 52.2509 29.536 52.212 29.8807 52.0808L31.2807 55.6957ZM6.07737 28.1885C5.2595 29.1896 4.7297 29.8407 4.37155 30.3707C4.02837 30.8783 3.95518 31.1169 3.93283 31.2568L0.0740003 30.6512C0.221658 29.7271 0.631115 28.947 1.12575 28.2155C1.60534 27.506 2.26848 26.6975 3.04113 25.7519L6.07737 28.1885ZM4.32929 37.8982C3.37513 37.1322 2.55685 36.478 1.9389 35.8828C1.3016 35.2692 0.73745 34.5906 0.399184 33.7174L4.04661 32.3296C4.09782 32.4618 4.21947 32.6802 4.66164 33.106C5.12314 33.5505 5.77798 34.0785 6.78799 34.889L4.32929 37.8982ZM3.93283 31.2568C3.87509 31.6181 3.91432 31.9881 4.04661 32.3296L0.399184 33.7174C0.0211032 32.7411 -0.0910395 31.6837 0.0740003 30.6512L3.93283 31.2568ZM3.04113 25.7519C3.81377 24.8063 4.47399 23.9953 5.07449 23.3829C5.69378 22.7513 6.37844 22.1922 7.2597 21.8569L8.65981 25.4716C8.52639 25.5224 8.30609 25.6432 7.87641 26.0811C7.42799 26.5387 6.89527 27.1876 6.07737 28.1885L3.04113 25.7519ZM12.8384 27.4842C11.8283 26.6737 11.1712 26.1488 10.6365 25.7936C10.1244 25.4538 9.88353 25.381 9.74238 25.3589L10.3536 21.5347C11.2859 21.681 12.0729 22.0868 12.8112 22.577C13.527 23.0523 14.3429 23.7095 15.2971 24.4753L12.8384 27.4842ZM7.2597 21.8569C8.24459 21.4823 9.31161 21.3711 10.3536 21.5347L9.74238 25.3589C9.37782 25.3018 9.00444 25.3407 8.65981 25.4716L7.2597 21.8569ZM49.1277 17.1404L51.2292 18.8269L48.7706 21.836L46.6689 20.1494L49.1277 17.1404ZM52.5173 30.9731C51.7447 31.9187 51.0846 32.7298 50.484 33.3421C49.8649 33.9737 49.1801 34.5327 48.2988 34.868L46.8987 31.2534C47.0322 31.2027 47.2524 31.0819 47.6821 30.6439C48.1307 30.1863 48.6634 29.5375 49.4813 28.5366L52.5173 30.9731ZM42.7202 29.2408C43.7304 30.0513 44.3873 30.5762 44.9221 30.9314C45.4343 31.2712 45.6751 31.344 45.8162 31.3662L45.2051 35.1902C44.2727 35.0439 43.4856 34.6382 42.7474 34.1479C42.0316 33.6728 41.2157 33.0154 40.2616 32.2497L42.7202 29.2408ZM48.2988 34.868C47.314 35.2428 46.247 35.354 45.2051 35.1902L45.8162 31.3662C46.1808 31.4232 46.5541 31.3843 46.8987 31.2534L48.2988 34.868ZM49.4813 28.5366C50.2991 27.5354 50.829 26.8843 51.1871 26.3544C51.5303 25.8467 51.6034 25.6081 51.6258 25.4682L55.4847 26.0739C55.337 26.9979 54.9274 27.778 54.433 28.5095C53.9532 29.219 53.2902 30.0275 52.5173 30.9731L49.4813 28.5366ZM51.2292 18.8269C52.1836 19.5926 53.0017 20.247 53.6198 20.8422C54.2569 21.4558 54.8212 22.1344 55.1595 23.0076L51.512 24.3954C51.4608 24.2632 51.3392 24.0448 50.897 23.619C50.4355 23.1745 49.7806 22.6465 48.7706 21.836L51.2292 18.8269ZM51.6258 25.4682C51.6836 25.1069 51.6444 24.7369 51.512 24.3954L55.1595 23.0076C55.5375 23.9839 55.6496 25.0413 55.4847 26.0739L51.6258 25.4682ZM20.0593 4.92431C20.8319 3.97872 21.4921 3.16777 22.0926 2.55535C22.7118 1.92376 23.3966 1.36466 24.2779 1.02939L25.6779 4.64419C25.5445 4.69494 25.3242 4.81551 24.8946 5.25372C24.446 5.71108 23.9135 6.36004 23.0954 7.36103L20.0593 4.92431ZM29.8565 6.65678C28.8466 5.8462 28.1893 5.32117 27.6546 4.96623C27.1424 4.62612 26.9016 4.55359 26.7605 4.53143L27.3718 0.70712C28.304 0.853483 29.0911 1.25928 29.8292 1.74948C30.5451 2.22478 31.361 2.88198 32.3153 3.64769L29.8565 6.65678ZM24.2779 1.02939C25.2627 0.654724 26.3297 0.543585 27.3718 0.70712L26.7605 4.53143C26.3959 4.47421 26.0226 4.51309 25.6779 4.64419L24.2779 1.02939ZM23.0954 7.36103C22.2776 8.362 21.748 9.01331 21.3896 9.54314C21.0467 10.0507 20.9732 10.2894 20.9509 10.4293L17.0921 9.82357C17.2398 8.89958 17.6493 8.11964 18.1439 7.38799C18.6235 6.67853 19.2866 5.86992 20.0593 4.92431L23.0954 7.36103ZM21.3475 17.0705C20.3933 16.3048 19.575 15.6505 18.9571 15.0554C18.3197 14.4416 17.7556 13.7631 17.4173 12.8897L21.0647 11.5022C21.1159 11.6344 21.2378 11.8527 21.6797 12.2786C22.1414 12.723 22.7961 13.2509 23.806 14.0615L21.3475 17.0705ZM20.9509 10.4293C20.8933 10.7906 20.9326 11.1606 21.0647 11.5022L17.4173 12.8897C17.0393 11.9137 16.9271 10.8562 17.0921 9.82357L20.9509 10.4293ZM6.78799 34.889L16.245 42.4785L13.7863 45.4877L4.32929 37.8982L6.78799 34.889ZM32.3153 3.64769L41.7723 11.2373L39.3134 14.2464L29.8565 6.65678L32.3153 3.64769ZM31.7526 42.6635L28.6 40.1336L31.0588 37.1247L34.2111 39.6545L31.7526 42.6635ZM28.3112 37.4109L36.8205 26.9969L39.8566 29.4337L31.3476 39.8474L28.3112 37.4109ZM40.2616 32.2497L37.1093 29.7199L39.5678 26.7107L42.7202 29.2408L40.2616 32.2497ZM28.6 40.1336L15.9907 30.0143L18.4494 27.0051L31.0588 37.1247L28.6 40.1336ZM15.9907 30.0143L12.8384 27.4842L15.2971 24.4753L18.4494 27.0051L15.9907 30.0143ZM27.2474 19.3142L18.7382 29.7281L15.7019 27.2913L24.211 16.8775L27.2474 19.3142ZM37.1093 29.7199L24.4998 19.6004L26.9586 16.5913L39.5678 26.7107L37.1093 29.7199ZM24.4998 19.6004L21.3475 17.0705L23.806 14.0615L26.9586 16.5913L24.4998 19.6004ZM46.6689 20.1494C45.2502 19.0108 45.0314 16.948 46.1803 15.5419L49.2166 17.9786C49.4257 17.7228 49.3859 17.3475 49.1277 17.1404L46.6689 20.1494ZM21.1418 51.3907C21.3999 51.5979 21.7786 51.5585 21.9876 51.3026L18.9513 48.8658C20.1002 47.4598 22.1818 47.243 23.6005 48.3815L21.1418 51.3907Z" fill="#D6DDDC"/>
</svg>
