<svg width="56" height="56" viewBox="0 0 56 56" fill="none" xmlns="http://www.w3.org/2000/svg">
<path d="M16.245 41.8447C17.0835 42.5176 17.2128 43.7367 16.5338 44.5677C15.8549 45.3987 14.6248 45.5268 13.7863 44.8539L16.245 41.8447ZM41.7723 10.6035C42.6107 11.2764 42.74 12.4955 42.061 13.3264C41.3821 14.1573 40.1519 14.2855 39.3134 13.6126L41.7723 10.6035ZM9.88894 45.3652L14.0921 48.7382L11.6334 51.7473L7.43021 48.3742L9.88894 45.3652ZM45.6695 10.0923L41.4666 6.71911L43.9252 3.71005L48.1284 7.08321L45.6695 10.0923ZM46.1803 14.9081C47.0173 13.8837 47.5181 13.2642 47.8206 12.7723C47.9597 12.5459 48.013 12.4135 48.0338 12.345C48.0497 12.2925 48.0454 12.2793 48.0454 12.2793L51.9309 11.8746C52.0521 13.0168 51.6576 13.9724 51.1573 14.7863C50.6867 15.5522 49.9842 16.4055 49.2166 17.3448L46.1803 14.9081ZM48.1284 7.08321C49.0762 7.84384 49.9424 8.53367 50.5633 9.18587C51.2235 9.87892 51.8098 10.7323 51.9309 11.8746L48.0454 12.2793C48.0454 12.2793 48.0468 12.2655 48.0202 12.2174C47.9855 12.1547 47.9057 12.0362 47.7221 11.8434C47.323 11.4246 46.7032 10.9218 45.6695 10.0923L48.1284 7.08321ZM14.0921 48.7382C15.1257 49.5677 15.7508 50.064 16.2471 50.3638C16.4755 50.5017 16.6092 50.5545 16.6783 50.5751C16.7312 50.5908 16.7446 50.5866 16.7446 50.5866L17.153 54.4373C16.0004 54.5574 15.0362 54.1665 14.2149 53.6706C13.4421 53.2043 12.5811 52.508 11.6334 51.7473L14.0921 48.7382ZM21.9876 50.6688C21.2201 51.6081 20.5241 52.4666 19.866 53.082C19.1667 53.7362 18.3055 54.3173 17.153 54.4373L16.7446 50.5866C16.7446 50.5866 16.7585 50.588 16.807 50.5616C16.8703 50.5273 16.9899 50.4481 17.1844 50.2661C17.607 49.8707 18.1143 49.2564 18.9513 48.232L21.9876 50.6688ZM9.37818 40.5492C8.5412 41.5737 8.04037 42.1932 7.73806 42.6851C7.59895 42.9114 7.54551 43.0439 7.52487 43.1125C7.50901 43.1648 7.5132 43.1781 7.5132 43.1781L3.62767 43.5828C3.50654 42.4407 3.90108 41.4849 4.40126 40.671C4.87195 39.9051 5.57447 39.052 6.34194 38.1127L9.37818 40.5492ZM7.43021 48.3742C6.48245 47.6135 5.6163 46.9238 4.99521 46.2716C4.33522 45.5785 3.7488 44.725 3.62767 43.5828L7.5132 43.1781C7.5132 43.1781 7.5119 43.192 7.53837 43.2398C7.57295 43.3027 7.65302 43.4213 7.83656 43.6139C8.23547 44.0328 8.85533 44.5357 9.88894 45.3652L7.43021 48.3742ZM33.571 4.78857C34.3386 3.84929 35.0345 2.9909 35.6926 2.37537C36.3919 1.72129 37.2532 1.14011 38.4056 1.02007L38.814 4.87082C38.814 4.87082 38.8 4.86953 38.7517 4.89576C38.6883 4.93004 38.5687 5.00939 38.3742 5.19129C37.9516 5.58662 37.4442 6.20093 36.6071 7.22529L33.571 4.78857ZM41.4666 6.71911C40.433 5.88961 39.8078 5.39327 39.3114 5.09367C39.0831 4.9558 38.9494 4.90284 38.8802 4.88238C38.8275 4.86667 38.814 4.87082 38.814 4.87082L38.4056 1.02007C39.5581 0.900026 40.5225 1.29104 41.3437 1.78673C42.1165 2.25321 42.9774 2.94945 43.9252 3.71005L41.4666 6.71911ZM23.6005 47.7477L25.7021 49.4345L23.2434 52.4434L21.1418 50.7569L23.6005 47.7477ZM32.4632 48.7302C33.281 47.7293 33.8106 47.078 34.169 46.548C34.5119 46.0404 34.5854 45.8018 34.6077 45.6619L38.4663 46.2675C38.3187 47.1916 37.9093 47.9716 37.4146 48.7032C36.9352 49.4126 36.2719 50.2212 35.4993 51.1668L32.4632 48.7302ZM34.2111 39.0207C35.1652 39.7864 35.9837 40.4407 36.6015 41.0358C37.2388 41.6495 37.8029 42.3281 38.1412 43.2016L34.4939 44.5891C34.4427 44.4568 34.3209 44.2385 33.8789 43.8127C33.4172 43.3682 32.7625 42.8404 31.7526 42.0297L34.2111 39.0207ZM34.6077 45.6619C34.6653 45.3005 34.626 44.9306 34.4939 44.5891L38.1412 43.2016C38.5194 44.1775 38.6315 45.235 38.4663 46.2675L34.6077 45.6619ZM35.4993 51.1668C34.7267 52.1126 34.0665 52.9234 33.466 53.536C32.8468 54.1673 32.1621 54.7266 31.2807 55.0619L29.8807 51.447C30.0141 51.3963 30.2344 51.2758 30.664 50.8375C31.1126 50.3802 31.6451 49.7311 32.4632 48.7302L35.4993 51.1668ZM25.7021 49.4345C26.712 50.245 27.3693 50.7701 27.904 51.125C28.4162 51.4651 28.657 51.5377 28.7982 51.5598L28.1868 55.3841C27.2546 55.2378 26.4675 54.8318 25.7294 54.3418C25.0134 53.8664 24.1975 53.2093 23.2434 52.4434L25.7021 49.4345ZM31.2807 55.0619C30.2959 55.4365 29.2289 55.5476 28.1868 55.3841L28.7982 51.5598C29.1628 51.6171 29.536 51.5782 29.8807 51.447L31.2807 55.0619ZM6.07737 27.5547C5.2595 28.5558 4.7297 29.2069 4.37155 29.7369C4.02837 30.2445 3.95518 30.4831 3.93283 30.623L0.0740003 30.0174C0.221658 29.0933 0.631115 28.3132 1.12575 27.5817C1.60534 26.8722 2.26848 26.0637 3.04113 25.1181L6.07737 27.5547ZM4.32929 37.2644C3.37513 36.4984 2.55685 35.8442 1.9389 35.249C1.3016 34.6354 0.73745 33.9568 0.399184 33.0836L4.04661 31.6958C4.09782 31.828 4.21947 32.0464 4.66164 32.4722C5.12314 32.9167 5.77798 33.4447 6.78799 34.2552L4.32929 37.2644ZM3.93283 30.623C3.87509 30.9843 3.91432 31.3543 4.04661 31.6958L0.399184 33.0836C0.0211032 32.1073 -0.0910395 31.0499 0.0740003 30.0174L3.93283 30.623ZM3.04113 25.1181C3.81377 24.1725 4.47399 23.3615 5.07449 22.7491C5.69378 22.1175 6.37844 21.5584 7.2597 21.2231L8.65981 24.8378C8.52639 24.8886 8.30609 25.0094 7.87641 25.4473C7.42799 25.9049 6.89527 26.5538 6.07737 27.5547L3.04113 25.1181ZM12.8384 26.8504C11.8283 26.0399 11.1712 25.515 10.6365 25.1598C10.1244 24.82 9.88353 24.7472 9.74238 24.7251L10.3536 20.9009C11.2859 21.0472 12.0729 21.453 12.8112 21.9432C13.527 22.4185 14.3429 23.0757 15.2971 23.8415L12.8384 26.8504ZM7.2597 21.2231C8.24459 20.8485 9.31161 20.7373 10.3536 20.9009L9.74238 24.7251C9.37782 24.668 9.00444 24.7069 8.65981 24.8378L7.2597 21.2231ZM49.1277 16.5066L51.2292 18.1931L48.7706 21.2022L46.6689 19.5156L49.1277 16.5066ZM52.5173 30.3393C51.7447 31.2849 51.0846 32.096 50.484 32.7083C49.8649 33.3399 49.1801 33.8989 48.2988 34.2342L46.8987 30.6196C47.0322 30.5689 47.2524 30.4481 47.6821 30.0101C48.1307 29.5525 48.6634 28.9037 49.4813 27.9028L52.5173 30.3393ZM42.7202 28.607C43.7304 29.4175 44.3873 29.9424 44.9221 30.2976C45.4343 30.6374 45.6751 30.7102 45.8162 30.7324L45.2051 34.5564C44.2727 34.4101 43.4856 34.0044 42.7474 33.5141C42.0316 33.039 41.2157 32.3816 40.2616 31.6159L42.7202 28.607ZM48.2988 34.2342C47.314 34.609 46.247 34.7202 45.2051 34.5564L45.8162 30.7324C46.1808 30.7894 46.5541 30.7505 46.8987 30.6196L48.2988 34.2342ZM49.4813 27.9028C50.2991 26.9016 50.829 26.2505 51.1871 25.7206C51.5303 25.2129 51.6034 24.9743 51.6258 24.8344L55.4847 25.4401C55.337 26.3641 54.9274 27.1442 54.433 27.8757C53.9532 28.5852 53.2902 29.3937 52.5173 30.3393L49.4813 27.9028ZM51.2292 18.1931C52.1836 18.9588 53.0017 19.6132 53.6198 20.2084C54.2569 20.822 54.8212 21.5006 55.1595 22.3738L51.512 23.7616C51.4608 23.6294 51.3392 23.411 50.897 22.9852C50.4355 22.5407 49.7806 22.0127 48.7706 21.2022L51.2292 18.1931ZM51.6258 24.8344C51.6836 24.4731 51.6444 24.1031 51.512 23.7616L55.1595 22.3738C55.5375 23.3501 55.6496 24.4075 55.4847 25.4401L51.6258 24.8344ZM20.0593 4.29052C20.8319 3.34492 21.4921 2.53397 22.0926 1.92155C22.7118 1.28996 23.3966 0.730858 24.2779 0.395594L25.6779 4.01039C25.5445 4.06114 25.3242 4.18171 24.8946 4.61992C24.446 5.07728 23.9135 5.72624 23.0954 6.72723L20.0593 4.29052ZM29.8565 6.02298C28.8466 5.2124 28.1893 4.68737 27.6546 4.33243C27.1424 3.99232 26.9016 3.91979 26.7605 3.89763L27.3718 0.0733209C28.304 0.219684 29.0911 0.625476 29.8292 1.11568C30.5451 1.59098 31.361 2.24819 32.3153 3.01389L29.8565 6.02298ZM24.2779 0.395594C25.2627 0.0209242 26.3297 -0.0902145 27.3718 0.0733209L26.7605 3.89763C26.3959 3.84041 26.0226 3.87929 25.6779 4.01039L24.2779 0.395594ZM23.0954 6.72723C22.2776 7.7282 21.748 8.37951 21.3896 8.90934C21.0467 9.41693 20.9732 9.6556 20.9509 9.79549L17.0921 9.18977C17.2398 8.26578 17.6493 7.48584 18.1439 6.75419C18.6235 6.04473 19.2866 5.23612 20.0593 4.29052L23.0954 6.72723ZM21.3475 16.4368C20.3933 15.671 19.575 15.0167 18.9571 14.4216C18.3197 13.8078 17.7556 13.1293 17.4173 12.2559L21.0647 10.8684C21.1159 11.0006 21.2378 11.2189 21.6797 11.6448C22.1414 12.0892 22.7961 12.6171 23.806 13.4277L21.3475 16.4368ZM20.9509 9.79549C20.8933 10.1568 20.9326 10.5268 21.0647 10.8684L17.4173 12.2559C17.0393 11.2799 16.9271 10.2224 17.0921 9.18977L20.9509 9.79549ZM6.78799 34.2552L16.245 41.8447L13.7863 44.8539L4.32929 37.2644L6.78799 34.2552ZM32.3153 3.01389L41.7723 10.6035L39.3134 13.6126L29.8565 6.02298L32.3153 3.01389ZM31.7526 42.0297L28.6 39.4998L31.0588 36.4909L34.2111 39.0207L31.7526 42.0297ZM28.3112 36.7771L36.8205 26.3631L39.8566 28.7999L31.3476 39.2136L28.3112 36.7771ZM40.2616 31.6159L37.1093 29.0861L39.5678 26.0769L42.7202 28.607L40.2616 31.6159ZM28.6 39.4998L15.9907 29.3805L18.4494 26.3713L31.0588 36.4909L28.6 39.4998ZM15.9907 29.3805L12.8384 26.8504L15.2971 23.8415L18.4494 26.3713L15.9907 29.3805ZM27.2474 18.6804L18.7382 29.0943L15.7019 26.6575L24.211 16.2437L27.2474 18.6804ZM37.1093 29.0861L24.4998 18.9666L26.9586 15.9575L39.5678 26.0769L37.1093 29.0861ZM24.4998 18.9666L21.3475 16.4368L23.806 13.4277L26.9586 15.9575L24.4998 18.9666ZM46.6689 19.5156C45.2502 18.377 45.0314 16.3142 46.1803 14.9081L49.2166 17.3448C49.4257 17.089 49.3859 16.7137 49.1277 16.5066L46.6689 19.5156ZM21.1418 50.7569C21.3999 50.9641 21.7786 50.9247 21.9876 50.6688L18.9513 48.232C20.1002 46.826 22.1818 46.6092 23.6005 47.7477L21.1418 50.7569Z" fill="#D6DDDC"/>
</svg>
